<svg width="32" height="32" viewBox="0 0 32 32" fill="none" xmlns="http://www.w3.org/2000/svg">
<path fill-rule="evenodd" clip-rule="evenodd" d="M15.5131 18.9613L23.2587 26.3616C23.6697 26.7543 24.2271 26.9749 24.8084 26.9749C25.3896 26.9749 25.9471 26.7543 26.3581 26.3616C26.7691 25.969 27 25.4364 27 24.881C27 24.3257 26.7691 23.7931 26.3581 23.4004L18.6096 16L26.3566 8.59962C26.56 8.40518 26.7214 8.17437 26.8314 7.92035C26.9415 7.66634 26.9981 7.39411 26.998 7.11919C26.998 6.84428 26.9412 6.57207 26.831 6.3181C26.7209 6.06414 26.5594 5.8334 26.3559 5.63905C26.1524 5.4447 25.9108 5.29056 25.6449 5.18541C25.3791 5.08027 25.0942 5.02618 24.8064 5.02625C24.5187 5.02631 24.2338 5.08052 23.968 5.18579C23.7021 5.29105 23.4606 5.44531 23.2572 5.63975L15.5131 13.0401L7.76751 5.63975C7.5655 5.43973 7.32383 5.28016 7.05658 5.17033C6.78934 5.06051 6.50188 5.00263 6.21097 5.00009C5.92007 4.99754 5.63154 5.05038 5.36224 5.15551C5.09293 5.26064 4.84824 5.41596 4.64243 5.6124C4.43663 5.80885 4.27383 6.0425 4.16354 6.2997C4.05325 6.5569 3.99768 6.83252 4.00007 7.11046C4.00246 7.3884 4.06277 7.6631 4.17746 7.91854C4.29216 8.17398 4.45895 8.40503 4.66811 8.59823L12.4166 16L4.66957 23.4018C4.46041 23.595 4.29362 23.826 4.17892 24.0815C4.06423 24.3369 4.00392 24.6116 4.00153 24.8895C3.99914 25.1675 4.05471 25.4431 4.165 25.7003C4.27529 25.9575 4.43809 26.1911 4.64389 26.3876C4.8497 26.584 5.09439 26.7394 5.3637 26.8445C5.633 26.9496 5.92153 27.0025 6.21243 26.9999C6.50334 26.9974 6.7908 26.9395 7.05804 26.8297C7.32529 26.7198 7.56696 26.5603 7.76897 26.3602L15.5131 18.9613Z" fill="#262626"/>
</svg>
