<svg width="40" height="40" viewBox="0 0 40 40" fill="none" xmlns="http://www.w3.org/2000/svg">
<path fill-rule="evenodd" clip-rule="evenodd" d="M20 23.5367L28.8383 32.375C29.3073 32.844 29.9434 33.1075 30.6067 33.1075C31.2699 33.1075 31.906 32.844 32.375 32.375C32.844 31.906 33.1075 31.2699 33.1075 30.6067C33.1075 29.9434 32.844 29.3073 32.375 28.8383L23.5333 20L32.3733 11.1617C32.6054 10.9294 32.7895 10.6538 32.9151 10.3504C33.0407 10.047 33.1053 9.72191 33.1052 9.39358C33.1051 9.06525 33.0404 8.74014 32.9147 8.43683C32.789 8.13352 32.6047 7.85795 32.3725 7.62583C32.1403 7.39372 31.8646 7.20962 31.5612 7.08405C31.2579 6.95847 30.9327 6.89388 30.6044 6.89396C30.2761 6.89403 29.951 6.95878 29.6477 7.0845C29.3444 7.21022 29.0688 7.39445 28.8367 7.62667L20 16.465L11.1617 7.62667C10.9312 7.38779 10.6554 7.1972 10.3504 7.06604C10.0455 6.93487 9.71748 6.86575 9.38553 6.86271C9.05359 6.85967 8.72436 6.92277 8.41706 7.04833C8.10976 7.17389 7.83055 7.35939 7.59571 7.59401C7.36087 7.82863 7.1751 8.10767 7.04925 8.41485C6.92341 8.72203 6.86 9.0512 6.86272 9.38315C6.86545 9.7151 6.93426 10.0432 7.06514 10.3482C7.19601 10.6533 7.38634 10.9293 7.625 11.16L16.4667 20L7.62667 28.84C7.388 29.0707 7.19768 29.3467 7.0668 29.6518C6.93593 29.9568 6.86712 30.2849 6.86439 30.6169C6.86166 30.9488 6.92507 31.278 7.05092 31.5851C7.17677 31.8923 7.36253 32.1714 7.59737 32.406C7.83221 32.6406 8.11143 32.8261 8.41873 32.9517C8.72603 33.0772 9.05526 33.1403 9.3872 33.1373C9.71915 33.1342 10.0472 33.0651 10.3521 32.934C10.6571 32.8028 10.9328 32.6122 11.1633 32.3733L20 23.5367Z" fill="#262626"/>
</svg>
