<svg width="303" height="36" viewBox="0 0 303 36" fill="none" xmlns="http://www.w3.org/2000/svg">
<path d="M0.17 6.76C0.63 6.78 1.22 6.8 1.94 6.82C2.68 6.84 3.41 6.85 4.13 6.85C5.09 6.85 6 6.84 6.86 6.82C7.74 6.8 8.36 6.79 8.72 6.79C10.42 6.79 11.83 7.01 12.95 7.45C14.09 7.89 14.93 8.51 15.47 9.31C16.03 10.09 16.31 10.99 16.31 12.01C16.31 12.63 16.18 13.29 15.92 13.99C15.68 14.67 15.25 15.31 14.63 15.91C14.01 16.49 13.17 16.97 12.11 17.35C11.05 17.73 9.7 17.92 8.06 17.92H5.18V17.32H7.76C9.1 17.32 10.12 17.1 10.82 16.66C11.54 16.2 12.02 15.6 12.26 14.86C12.52 14.1 12.65 13.26 12.65 12.34C12.65 10.76 12.31 9.54 11.63 8.68C10.95 7.8 9.77 7.36 8.09 7.36C7.23 7.36 6.66 7.53 6.38 7.87C6.12 8.21 5.99 8.9 5.99 9.94V24.82C5.99 25.54 6.05 26.08 6.17 26.44C6.29 26.8 6.52 27.04 6.86 27.16C7.2 27.28 7.7 27.36 8.36 27.4V28C7.88 27.96 7.27 27.94 6.53 27.94C5.81 27.92 5.07 27.91 4.31 27.91C3.47 27.91 2.68 27.92 1.94 27.94C1.22 27.94 0.63 27.96 0.17 28V27.4C0.85 27.36 1.36 27.28 1.7 27.16C2.04 27.04 2.26 26.8 2.36 26.44C2.48 26.08 2.54 25.54 2.54 24.82V9.94C2.54 9.2 2.48 8.66 2.36 8.32C2.26 7.96 2.03 7.72 1.67 7.6C1.33 7.46 0.83 7.38 0.17 7.36V6.76ZM5.24 17.41C6.26 17.45 7.08 17.5 7.7 17.56C8.32 17.6 8.84 17.64 9.26 17.68C9.68 17.72 10.07 17.77 10.43 17.83C11.93 18.03 13.02 18.43 13.7 19.03C14.4 19.63 14.88 20.55 15.14 21.79L15.89 24.85C16.07 25.71 16.26 26.32 16.46 26.68C16.68 27.04 17 27.22 17.42 27.22C17.74 27.2 18 27.11 18.2 26.95C18.42 26.77 18.65 26.53 18.89 26.23L19.31 26.56C18.85 27.18 18.37 27.65 17.87 27.97C17.37 28.27 16.7 28.42 15.86 28.42C15 28.42 14.26 28.2 13.64 27.76C13.04 27.3 12.61 26.44 12.35 25.18L11.75 22.18C11.57 21.32 11.37 20.58 11.15 19.96C10.93 19.32 10.62 18.82 10.22 18.46C9.84 18.1 9.28 17.92 8.54 17.92H5.3L5.24 17.41ZM35.3926 6.76C35.3126 7.52 35.2526 8.26 35.2126 8.98C35.1926 9.68 35.1826 10.22 35.1826 10.6C35.1826 10.98 35.1926 11.34 35.2126 11.68C35.2326 12.02 35.2526 12.3 35.2726 12.52H34.5826C34.4426 11.24 34.2226 10.23 33.9226 9.49C33.6426 8.75 33.2126 8.23 32.6326 7.93C32.0726 7.61 31.2826 7.45 30.2626 7.45H28.1926C27.5526 7.45 27.0626 7.51 26.7226 7.63C26.4026 7.73 26.1826 7.95 26.0626 8.29C25.9426 8.61 25.8826 9.12 25.8826 9.82V24.94C25.8826 25.62 25.9426 26.13 26.0626 26.47C26.1826 26.81 26.4026 27.04 26.7226 27.16C27.0626 27.26 27.5526 27.31 28.1926 27.31H30.1426C31.2826 27.31 32.1826 27.13 32.8426 26.77C33.5226 26.41 34.0326 25.82 34.3726 25C34.7326 24.18 35.0026 23.06 35.1826 21.64H35.8726C35.8126 22.22 35.7826 22.98 35.7826 23.92C35.7826 24.32 35.7926 24.9 35.8126 25.66C35.8526 26.42 35.9126 27.2 35.9926 28C34.9726 27.96 33.8226 27.94 32.5426 27.94C31.2626 27.92 30.1226 27.91 29.1226 27.91C28.6626 27.91 28.0726 27.91 27.3526 27.91C26.6326 27.91 25.8526 27.92 25.0126 27.94C24.1926 27.94 23.3526 27.95 22.4926 27.97C21.6526 27.97 20.8426 27.98 20.0626 28V27.4C20.7426 27.36 21.2526 27.28 21.5926 27.16C21.9326 27.04 22.1526 26.8 22.2526 26.44C22.3726 26.08 22.4326 25.54 22.4326 24.82V9.94C22.4326 9.2 22.3726 8.66 22.2526 8.32C22.1526 7.96 21.9226 7.72 21.5626 7.6C21.2226 7.46 20.7226 7.38 20.0626 7.36V6.76C20.8426 6.78 21.6526 6.8 22.4926 6.82C23.3526 6.82 24.1926 6.83 25.0126 6.85C25.8526 6.85 26.6326 6.85 27.3526 6.85C28.0726 6.85 28.6626 6.85 29.1226 6.85C30.0426 6.85 31.0826 6.85 32.2426 6.85C33.4226 6.83 34.4726 6.8 35.3926 6.76ZM30.4126 17.02C30.4126 17.02 30.4126 17.12 30.4126 17.32C30.4126 17.52 30.4126 17.62 30.4126 17.62H24.9826C24.9826 17.62 24.9826 17.52 24.9826 17.32C24.9826 17.12 24.9826 17.02 24.9826 17.02H30.4126ZM31.2826 13.06C31.2026 14.2 31.1626 15.07 31.1626 15.67C31.1826 16.27 31.1926 16.82 31.1926 17.32C31.1926 17.82 31.2026 18.37 31.2226 18.97C31.2426 19.57 31.2926 20.44 31.3726 21.58H30.6826C30.5826 20.92 30.4526 20.29 30.2926 19.69C30.1326 19.07 29.8426 18.57 29.4226 18.19C29.0226 17.81 28.3926 17.62 27.5326 17.62V17.02C28.1726 17.02 28.6726 16.89 29.0326 16.63C29.4126 16.37 29.7026 16.03 29.9026 15.61C30.1026 15.19 30.2426 14.76 30.3226 14.32C30.4226 13.86 30.5126 13.44 30.5926 13.06H31.2826ZM48.8082 6.34C50.1282 6.34 51.2082 6.54 52.0482 6.94C52.9082 7.32 53.6682 7.77 54.3282 8.29C54.7282 8.59 55.0282 8.63 55.2282 8.41C55.4482 8.17 55.5982 7.62 55.6782 6.76H56.3682C56.3282 7.52 56.2982 8.44 56.2782 9.52C56.2582 10.58 56.2482 12 56.2482 13.78H55.5582C55.4182 12.9 55.2782 12.18 55.1382 11.62C55.0182 11.06 54.8482 10.58 54.6282 10.18C54.4282 9.78 54.1482 9.39 53.7882 9.01C53.2082 8.29 52.4982 7.77 51.6582 7.45C50.8182 7.13 49.9282 6.97 48.9882 6.97C47.9682 6.97 47.0682 7.23 46.2882 7.75C45.5082 8.25 44.8482 8.97 44.3082 9.91C43.7882 10.85 43.3882 11.96 43.1082 13.24C42.8282 14.52 42.6882 15.92 42.6882 17.44C42.6882 19 42.8382 20.42 43.1382 21.7C43.4382 22.96 43.8682 24.05 44.4282 24.97C45.0082 25.87 45.6982 26.57 46.4982 27.07C47.3182 27.55 48.2282 27.79 49.2282 27.79C50.0482 27.79 50.8982 27.63 51.7782 27.31C52.6582 26.97 53.3582 26.46 53.8782 25.78C54.4382 25.18 54.8182 24.51 55.0182 23.77C55.2382 23.01 55.4182 21.98 55.5582 20.68H56.2482C56.2482 22.52 56.2582 24.01 56.2782 25.15C56.2982 26.27 56.3282 27.22 56.3682 28H55.6782C55.5982 27.14 55.4582 26.6 55.2582 26.38C55.0782 26.16 54.7682 26.19 54.3282 26.47C53.5882 26.99 52.7982 27.45 51.9582 27.85C51.1382 28.23 50.0782 28.42 48.7782 28.42C46.7982 28.42 45.0682 27.99 43.5882 27.13C42.1082 26.27 40.9582 25.03 40.1382 23.41C39.3182 21.79 38.9082 19.84 38.9082 17.56C38.9082 15.32 39.3282 13.36 40.1682 11.68C41.0282 10 42.1982 8.69 43.6782 7.75C45.1582 6.81 46.8682 6.34 48.8082 6.34ZM74.7383 6.76C74.6583 7.52 74.5983 8.26 74.5583 8.98C74.5383 9.68 74.5283 10.22 74.5283 10.6C74.5283 10.98 74.5383 11.34 74.5583 11.68C74.5783 12.02 74.5983 12.3 74.6183 12.52H73.9283C73.7883 11.24 73.5683 10.23 73.2683 9.49C72.9883 8.75 72.5583 8.23 71.9783 7.93C71.4183 7.61 70.6283 7.45 69.6083 7.45H67.5383C66.8983 7.45 66.4083 7.51 66.0683 7.63C65.7483 7.73 65.5283 7.95 65.4083 8.29C65.2883 8.61 65.2283 9.12 65.2283 9.82V24.94C65.2283 25.62 65.2883 26.13 65.4083 26.47C65.5283 26.81 65.7483 27.04 66.0683 27.16C66.4083 27.26 66.8983 27.31 67.5383 27.31H69.4883C70.6283 27.31 71.5283 27.13 72.1883 26.77C72.8683 26.41 73.3783 25.82 73.7183 25C74.0783 24.18 74.3483 23.06 74.5283 21.64H75.2183C75.1583 22.22 75.1283 22.98 75.1283 23.92C75.1283 24.32 75.1383 24.9 75.1583 25.66C75.1983 26.42 75.2583 27.2 75.3383 28C74.3183 27.96 73.1683 27.94 71.8883 27.94C70.6083 27.92 69.4683 27.91 68.4683 27.91C68.0083 27.91 67.4183 27.91 66.6983 27.91C65.9783 27.91 65.1983 27.92 64.3583 27.94C63.5383 27.94 62.6983 27.95 61.8383 27.97C60.9983 27.97 60.1883 27.98 59.4083 28V27.4C60.0883 27.36 60.5983 27.28 60.9383 27.16C61.2783 27.04 61.4983 26.8 61.5983 26.44C61.7183 26.08 61.7783 25.54 61.7783 24.82V9.94C61.7783 9.2 61.7183 8.66 61.5983 8.32C61.4983 7.96 61.2683 7.72 60.9083 7.6C60.5683 7.46 60.0683 7.38 59.4083 7.36V6.76C60.1883 6.78 60.9983 6.8 61.8383 6.82C62.6983 6.82 63.5383 6.83 64.3583 6.85C65.1983 6.85 65.9783 6.85 66.6983 6.85C67.4183 6.85 68.0083 6.85 68.4683 6.85C69.3883 6.85 70.4283 6.85 71.5883 6.85C72.7683 6.83 73.8183 6.8 74.7383 6.76ZM69.7583 17.02C69.7583 17.02 69.7583 17.12 69.7583 17.32C69.7583 17.52 69.7583 17.62 69.7583 17.62H64.3283C64.3283 17.62 64.3283 17.52 64.3283 17.32C64.3283 17.12 64.3283 17.02 64.3283 17.02H69.7583ZM70.6283 13.06C70.5483 14.2 70.5083 15.07 70.5083 15.67C70.5283 16.27 70.5383 16.82 70.5383 17.32C70.5383 17.82 70.5483 18.37 70.5683 18.97C70.5883 19.57 70.6383 20.44 70.7183 21.58H70.0283C69.9283 20.92 69.7983 20.29 69.6383 19.69C69.4783 19.07 69.1883 18.57 68.7683 18.19C68.3683 17.81 67.7383 17.62 66.8783 17.62V17.02C67.5183 17.02 68.0183 16.89 68.3783 16.63C68.7583 16.37 69.0483 16.03 69.2483 15.61C69.4483 15.19 69.5883 14.76 69.6683 14.32C69.7683 13.86 69.8583 13.44 69.9383 13.06H70.6283ZM95.0239 6.76C94.9439 7.6 94.8839 8.42 94.8439 9.22C94.8239 10 94.8139 10.6 94.8139 11.02C94.8139 11.48 94.8239 11.92 94.8439 12.34C94.8639 12.76 94.8839 13.12 94.9039 13.42H94.2139C94.0139 11.92 93.7439 10.74 93.4039 9.88C93.0839 9.02 92.6139 8.4 91.9939 8.02C91.3739 7.64 90.4839 7.45 89.3239 7.45H88.0339V24.55C88.0339 25.35 88.1039 25.95 88.2439 26.35C88.4039 26.75 88.7039 27.02 89.1439 27.16C89.6039 27.28 90.2639 27.36 91.1239 27.4V28C90.5639 27.96 89.8439 27.94 88.9639 27.94C88.0839 27.92 87.1839 27.91 86.2639 27.91C85.3039 27.91 84.3939 27.92 83.5339 27.94C82.6939 27.94 82.0139 27.96 81.4939 28V27.4C82.3539 27.36 83.0039 27.28 83.4439 27.16C83.8839 27.02 84.1839 26.75 84.3439 26.35C84.5039 25.95 84.5839 25.35 84.5839 24.55V7.45H83.2639C82.1439 7.45 81.2639 7.64 80.6239 8.02C79.9839 8.4 79.5039 9.02 79.1839 9.88C78.8639 10.74 78.6039 11.92 78.4039 13.42H77.7139C77.7539 13.12 77.7739 12.76 77.7739 12.34C77.7939 11.92 77.8039 11.48 77.8039 11.02C77.8039 10.6 77.7839 10 77.7439 9.22C77.7239 8.42 77.6739 7.6 77.5939 6.76C78.4539 6.78 79.3939 6.8 80.4139 6.82C81.4339 6.84 82.4639 6.85 83.5039 6.85C84.5439 6.85 85.4839 6.85 86.3239 6.85C87.1639 6.85 88.0939 6.85 89.1139 6.85C90.1339 6.85 91.1639 6.84 92.2039 6.82C93.2439 6.8 94.1839 6.78 95.0239 6.76ZM104.472 6.64L111.792 25.48C112.072 26.22 112.392 26.72 112.752 26.98C113.132 27.24 113.482 27.38 113.802 27.4V28C113.322 27.96 112.752 27.94 112.092 27.94C111.452 27.92 110.802 27.91 110.142 27.91C109.302 27.91 108.522 27.92 107.802 27.94C107.082 27.94 106.502 27.96 106.062 28V27.4C107.082 27.36 107.722 27.19 107.982 26.89C108.262 26.57 108.202 25.9 107.802 24.88L102.402 10.3L102.882 9.76L97.902 22.78C97.542 23.68 97.322 24.43 97.242 25.03C97.182 25.63 97.232 26.1 97.392 26.44C97.572 26.78 97.872 27.02 98.292 27.16C98.712 27.3 99.232 27.38 99.852 27.4V28C99.252 27.96 98.642 27.94 98.022 27.94C97.422 27.92 96.852 27.91 96.312 27.91C95.832 27.91 95.402 27.92 95.022 27.94C94.662 27.94 94.332 27.96 94.032 28V27.4C94.452 27.3 94.872 27.05 95.292 26.65C95.712 26.25 96.112 25.57 96.492 24.61L103.452 6.64C103.612 6.64 103.782 6.64 103.962 6.64C104.142 6.64 104.312 6.64 104.472 6.64ZM107.622 19.36V19.96H98.682L98.982 19.36H107.622ZM121.53 6.4C122.59 6.4 123.4 6.52 123.96 6.76C124.52 7 125.01 7.26 125.43 7.54C125.67 7.68 125.86 7.79 126 7.87C126.16 7.93 126.31 7.96 126.45 7.96C126.65 7.96 126.79 7.85 126.87 7.63C126.97 7.41 127.05 7.08 127.11 6.64H127.8C127.78 7 127.75 7.43 127.71 7.93C127.69 8.41 127.67 9.05 127.65 9.85C127.65 10.65 127.65 11.7 127.65 13H126.96C126.9 12.02 126.68 11.07 126.3 10.15C125.94 9.23 125.4 8.48 124.68 7.9C123.98 7.32 123.08 7.03 121.98 7.03C120.96 7.03 120.11 7.34 119.43 7.96C118.77 8.56 118.44 9.36 118.44 10.36C118.44 11.24 118.66 11.98 119.1 12.58C119.54 13.16 120.14 13.71 120.9 14.23C121.68 14.73 122.56 15.29 123.54 15.91C124.54 16.55 125.44 17.19 126.24 17.83C127.04 18.45 127.67 19.14 128.13 19.9C128.59 20.66 128.82 21.58 128.82 22.66C128.82 23.96 128.51 25.04 127.89 25.9C127.29 26.74 126.48 27.37 125.46 27.79C124.44 28.21 123.32 28.42 122.1 28.42C120.98 28.42 120.09 28.3 119.43 28.06C118.77 27.82 118.21 27.57 117.75 27.31C117.31 27.03 116.97 26.89 116.73 26.89C116.53 26.89 116.38 27 116.28 27.22C116.2 27.44 116.13 27.77 116.07 28.21H115.38C115.42 27.77 115.44 27.26 115.44 26.68C115.46 26.08 115.47 25.3 115.47 24.34C115.49 23.38 115.5 22.17 115.5 20.71H116.19C116.27 21.95 116.49 23.11 116.85 24.19C117.23 25.27 117.8 26.14 118.56 26.8C119.34 27.44 120.37 27.76 121.65 27.76C122.33 27.76 122.96 27.63 123.54 27.37C124.12 27.11 124.59 26.7 124.95 26.14C125.31 25.58 125.49 24.86 125.49 23.98C125.49 23.16 125.29 22.44 124.89 21.82C124.51 21.2 123.97 20.63 123.27 20.11C122.59 19.57 121.79 19.02 120.87 18.46C119.93 17.86 119.05 17.26 118.23 16.66C117.41 16.06 116.75 15.36 116.25 14.56C115.77 13.76 115.53 12.81 115.53 11.71C115.53 10.49 115.81 9.49 116.37 8.71C116.95 7.93 117.69 7.35 118.59 6.97C119.51 6.59 120.49 6.4 121.53 6.4Z" fill="#262626"/>
<path d="M155.575 8.4C154.935 8.4 154.215 8.84 153.415 9.72C152.642 10.6 151.855 11.7867 151.055 13.28C150.255 14.7733 149.495 16.4667 148.775 18.36C148.055 20.2533 147.455 22.2133 146.975 24.24L147.695 20C148.762 16.8267 149.788 14.28 150.775 12.36C151.762 10.44 152.775 9.04 153.815 8.16C154.855 7.28 155.948 6.84 157.095 6.84C158.455 6.84 159.522 7.33333 160.295 8.32C161.095 9.28 161.495 10.72 161.495 12.64C161.495 13.8667 161.322 15.2 160.975 16.64C160.655 18.0533 160.162 19.4667 159.495 20.88C158.855 22.2667 158.055 23.5467 157.095 24.72C156.135 25.8933 155.042 26.8267 153.815 27.52C152.588 28.2133 151.215 28.56 149.695 28.56C148.895 28.56 148.162 28.3467 147.495 27.92C146.855 27.4933 146.402 26.8933 146.135 26.12L146.455 25.36C146.802 26.16 147.188 26.7333 147.615 27.08C148.068 27.4 148.588 27.56 149.175 27.56C150.028 27.56 150.855 27.2267 151.655 26.56C152.455 25.8667 153.188 24.9467 153.855 23.8C154.548 22.6533 155.148 21.3867 155.655 20C156.188 18.6133 156.588 17.2133 156.855 15.8C157.122 14.3867 157.255 13.0667 157.255 11.84C157.255 10.6133 157.108 9.73333 156.815 9.2C156.522 8.66667 156.108 8.4 155.575 8.4ZM149.295 1.44C150.095 1.38667 150.868 1.30667 151.615 1.2C152.362 1.09333 153.068 0.919999 153.735 0.679999L144.975 31.36C144.628 32.56 144.762 33.36 145.375 33.76C145.988 34.1867 146.922 34.4 148.175 34.4L147.935 35.24C147.375 35.2133 146.575 35.1733 145.535 35.12C144.495 35.0933 143.402 35.08 142.255 35.08C141.348 35.08 140.428 35.0933 139.495 35.12C138.562 35.1733 137.868 35.2133 137.415 35.24L137.655 34.4C138.615 34.4 139.308 34.2133 139.735 33.84C140.162 33.4933 140.508 32.8533 140.775 31.92L149.295 1.44ZM141.175 13.8C142.188 12.7867 143.135 11.7733 144.015 10.76C144.922 9.74667 145.788 8.54667 146.615 7.16C147.468 5.77333 148.322 4.01333 149.175 1.88L149.295 2.52C148.735 4.36 148.055 5.97333 147.255 7.36C146.455 8.72 145.575 9.96 144.615 11.08C143.682 12.2 142.682 13.28 141.615 14.32L141.175 13.8ZM166.916 19.04C168.276 18.56 169.516 18.0667 170.636 17.56C171.783 17.0533 172.716 16.5067 173.436 15.92C174.423 15.0933 175.196 14.12 175.756 13C176.343 11.8533 176.636 10.6 176.636 9.24C176.636 8.54667 176.583 8.10667 176.476 7.92C176.369 7.70666 176.209 7.6 175.996 7.6C175.356 7.6 174.663 7.89333 173.916 8.48C173.196 9.06667 172.476 9.88 171.756 10.92C171.036 11.9333 170.369 13.0933 169.756 14.4C169.169 15.68 168.689 17.0533 168.316 18.52C167.969 19.96 167.796 21.3867 167.796 22.8C167.796 24.1867 168.049 25.1733 168.556 25.76C169.089 26.3467 169.783 26.64 170.636 26.64C171.516 26.64 172.489 26.3733 173.556 25.84C174.623 25.28 175.676 24.2933 176.716 22.88L177.356 23.2C176.823 24.08 176.129 24.9333 175.276 25.76C174.423 26.5867 173.449 27.2667 172.356 27.8C171.289 28.3067 170.129 28.56 168.876 28.56C167.783 28.56 166.809 28.3467 165.956 27.92C165.103 27.4933 164.436 26.8667 163.956 26.04C163.503 25.1867 163.276 24.1467 163.276 22.92C163.276 21.6933 163.489 20.36 163.916 18.92C164.369 17.4533 164.996 16.0133 165.796 14.6C166.623 13.1867 167.596 11.8933 168.716 10.72C169.836 9.52 171.089 8.57333 172.476 7.88C173.863 7.18667 175.329 6.84 176.876 6.84C177.836 6.84 178.636 7.08 179.276 7.56C179.916 8.01333 180.236 8.70667 180.236 9.64C180.236 10.7067 179.929 11.7067 179.316 12.64C178.729 13.5467 177.929 14.3733 176.916 15.12C175.903 15.8667 174.796 16.5333 173.596 17.12C172.423 17.7067 171.236 18.2133 170.036 18.64C168.863 19.0667 167.809 19.4133 166.876 19.68L166.916 19.04ZM185.931 28H181.731L186.531 10.8C186.771 9.94667 186.851 9.34667 186.771 9C186.691 8.65333 186.438 8.48 186.011 8.48C185.478 8.48 184.985 8.76 184.531 9.32C184.078 9.88 183.598 10.8533 183.091 12.24L182.491 13.92H181.731L182.731 10.96C183.131 9.86667 183.611 9.02667 184.171 8.44C184.731 7.85333 185.318 7.44 185.931 7.2C186.571 6.96 187.198 6.84 187.811 6.84C188.638 6.84 189.238 7.01333 189.611 7.36C189.985 7.70667 190.211 8.16 190.291 8.72C190.371 9.28 190.358 9.89333 190.251 10.56C190.171 11.2 190.051 11.8267 189.891 12.44L185.931 28ZM196.171 7.8C195.585 7.8 194.971 8.05333 194.331 8.56C193.691 9.04 193.038 9.77333 192.371 10.76C191.705 11.7467 191.025 12.9867 190.331 14.48C189.665 15.9733 188.985 17.72 188.291 19.72C187.625 21.6933 186.958 23.9333 186.291 26.44L187.251 21.24C188.105 18.52 188.905 16.24 189.651 14.4C190.398 12.56 191.131 11.0933 191.851 10C192.598 8.88 193.358 8.08 194.131 7.6C194.931 7.09333 195.785 6.84 196.691 6.84C197.545 6.84 198.198 7.09333 198.651 7.6C199.131 8.08 199.371 8.69333 199.371 9.44C199.371 10.0533 199.225 10.6133 198.931 11.12C198.638 11.6 198.251 12 197.771 12.32C197.318 12.6133 196.798 12.76 196.211 12.76C195.651 12.76 195.198 12.6133 194.851 12.32C194.505 12 194.331 11.56 194.331 11C194.331 10.4933 194.438 10.04 194.651 9.64C194.865 9.24 195.145 8.89333 195.491 8.6C195.838 8.30667 196.225 8.09333 196.651 7.96C196.598 7.90667 196.531 7.86667 196.451 7.84C196.371 7.81333 196.278 7.8 196.171 7.8ZM214.108 14.08C213.121 16.8533 212.188 19.1733 211.308 21.04C210.428 22.88 209.548 24.36 208.668 25.48C207.814 26.5733 206.934 27.36 206.028 27.84C205.121 28.32 204.188 28.56 203.228 28.56C202.054 28.56 201.188 28.3067 200.628 27.8C200.094 27.2667 199.814 26.5467 199.788 25.64C199.761 24.7333 199.934 23.6933 200.308 22.52L204.188 10.8C204.454 10 204.534 9.41333 204.428 9.04C204.348 8.66667 204.068 8.48 203.588 8.48C203.134 8.48 202.668 8.73333 202.188 9.24C201.734 9.74667 201.241 10.7467 200.708 12.24L200.108 13.88H199.348L200.348 10.96C200.748 9.84 201.228 8.98667 201.788 8.4C202.374 7.81333 202.974 7.41333 203.588 7.2C204.228 6.96 204.828 6.84 205.388 6.84C206.561 6.84 207.374 7.10667 207.828 7.64C208.281 8.17333 208.481 8.89333 208.428 9.8C208.401 10.68 208.201 11.64 207.828 12.68L204.108 23.92C203.414 26 203.654 27.04 204.828 27.04C205.414 27.04 206.054 26.7467 206.748 26.16C207.441 25.5467 208.148 24.68 208.868 23.56C209.614 22.44 210.348 21.12 211.068 19.6C211.788 18.08 212.481 16.4 213.148 14.56C213.814 12.72 214.414 10.7733 214.948 8.72L214.108 14.08ZM214.668 24.6C214.481 25.2933 214.388 25.8533 214.388 26.28C214.414 26.7067 214.681 26.92 215.188 26.92C215.748 26.92 216.254 26.64 216.708 26.08C217.188 25.4933 217.654 24.52 218.108 23.16L218.708 21.48H219.468L218.468 24.44C218.094 25.5333 217.628 26.3733 217.068 26.96C216.508 27.5467 215.908 27.96 215.268 28.2C214.654 28.44 214.041 28.56 213.428 28.56C212.921 28.56 212.454 28.4533 212.028 28.24C211.628 28.0533 211.321 27.7733 211.108 27.4C210.868 26.92 210.774 26.3333 210.828 25.64C210.881 24.9467 211.041 24.0533 211.308 22.96L215.268 7.4C216.094 7.37333 216.868 7.32 217.588 7.24C218.334 7.16 219.014 7.02667 219.628 6.84L214.668 24.6ZM227.194 27C227.78 27 228.434 26.6533 229.154 25.96C229.874 25.2667 230.607 24.32 231.354 23.12C232.1 21.8933 232.794 20.48 233.434 18.88C234.074 17.28 234.607 15.5733 235.034 13.76L234.314 18.12C233.407 20.6533 232.474 22.6933 231.514 24.24C230.58 25.76 229.62 26.8667 228.634 27.56C227.647 28.2267 226.634 28.56 225.594 28.56C224.26 28.56 223.26 28.12 222.594 27.24C221.927 26.3333 221.594 25.1467 221.594 23.68C221.594 22.3467 221.807 20.92 222.234 19.4C222.687 17.88 223.3 16.3733 224.074 14.88C224.874 13.3867 225.78 12.04 226.794 10.84C227.807 9.64 228.9 8.68 230.074 7.96C231.247 7.21333 232.42 6.84 233.594 6.84C234.5 6.84 235.194 7.26667 235.674 8.12C236.18 8.94667 236.3 10.16 236.034 11.76L235.594 12C235.78 10.7467 235.7 9.74667 235.354 9C235.034 8.22667 234.5 7.84 233.754 7.84C233.114 7.84 232.434 8.17333 231.714 8.84C230.994 9.48 230.287 10.3733 229.594 11.52C228.927 12.64 228.3 13.9067 227.714 15.32C227.154 16.7333 226.714 18.2 226.394 19.72C226.074 21.2133 225.914 22.68 225.914 24.12C225.914 25.1867 226.02 25.9333 226.234 26.36C226.474 26.7867 226.794 27 227.194 27ZM236.754 7.4C237.554 7.37333 238.327 7.32 239.074 7.24C239.82 7.16 240.514 7.02667 241.154 6.84L236.074 24.56C235.994 24.8533 235.914 25.1867 235.834 25.56C235.78 25.9067 235.794 26.2133 235.874 26.48C235.98 26.7467 236.234 26.88 236.634 26.88C237.114 26.88 237.594 26.6267 238.074 26.12C238.554 25.5867 239.034 24.5867 239.514 23.12L240.074 21.48H240.834L239.834 24.4C239.46 25.4933 239.007 26.3333 238.474 26.92C237.94 27.5067 237.367 27.92 236.754 28.16C236.167 28.4267 235.594 28.56 235.034 28.56C233.86 28.56 233.034 28.1867 232.554 27.44C232.207 26.8533 232.087 26.1467 232.194 25.32C232.327 24.4667 232.514 23.5867 232.754 22.68L236.754 7.4ZM248.12 28H243.92L248.72 10.8C248.826 10.4533 248.906 10.1067 248.96 9.76C249.04 9.38667 249.026 9.08 248.92 8.84C248.813 8.6 248.56 8.48 248.16 8.48C247.626 8.48 247.133 8.74667 246.68 9.28C246.253 9.81333 245.786 10.8 245.28 12.24L244.68 13.92H243.92L244.92 10.96C245.506 9.33333 246.226 8.24 247.08 7.68C247.96 7.12 248.88 6.84 249.84 6.84C250.693 6.84 251.32 7.01333 251.72 7.36C252.12 7.70667 252.36 8.16 252.44 8.72C252.546 9.25333 252.546 9.85333 252.44 10.52C252.36 11.16 252.24 11.8 252.08 12.44L248.12 28ZM249.76 20.2C250.72 17.64 251.64 15.5067 252.52 13.8C253.426 12.0667 254.306 10.6933 255.16 9.68C256.013 8.66667 256.88 7.94667 257.76 7.52C258.666 7.06667 259.613 6.84 260.6 6.84C261.88 6.84 262.76 7.13333 263.24 7.72C263.746 8.30667 263.973 9.06667 263.92 10C263.893 10.9067 263.72 11.8667 263.4 12.88L259.52 24.6C259.253 25.32 259.16 25.8933 259.24 26.32C259.32 26.72 259.613 26.92 260.12 26.92C260.573 26.92 261.026 26.6667 261.48 26.16C261.96 25.6533 262.466 24.6533 263 23.16L263.6 21.52H264.36L263.36 24.44C262.986 25.56 262.506 26.4133 261.92 27C261.36 27.5867 260.76 27.9867 260.12 28.2C259.506 28.44 258.906 28.56 258.32 28.56C257.653 28.56 257.093 28.4533 256.64 28.24C256.186 28.0267 255.84 27.7333 255.6 27.36C255.28 26.8533 255.16 26.2133 255.24 25.44C255.32 24.64 255.533 23.7333 255.88 22.72L259.6 11.48C259.733 11.08 259.84 10.64 259.92 10.16C260 9.68 259.986 9.26667 259.88 8.92C259.773 8.54667 259.44 8.36 258.88 8.36C258.293 8.36 257.653 8.65333 256.96 9.24C256.266 9.82667 255.533 10.6667 254.76 11.76C254.013 12.8267 253.28 14.0933 252.56 15.56C251.84 17.0267 251.146 18.6267 250.48 20.36C249.813 22.0667 249.2 23.88 248.64 25.8L249.76 20.2ZM272.115 27C272.702 27 273.355 26.6533 274.075 25.96C274.795 25.2667 275.529 24.32 276.275 23.12C277.022 21.8933 277.715 20.48 278.355 18.88C278.995 17.28 279.529 15.5733 279.955 13.76L279.235 18.12C278.329 20.6533 277.395 22.6933 276.435 24.24C275.502 25.76 274.542 26.8667 273.555 27.56C272.569 28.2267 271.555 28.56 270.515 28.56C269.182 28.56 268.182 28.12 267.515 27.24C266.849 26.3333 266.515 25.1467 266.515 23.68C266.515 22.3467 266.729 20.92 267.155 19.4C267.609 17.88 268.222 16.3733 268.995 14.88C269.795 13.3867 270.702 12.04 271.715 10.84C272.729 9.64 273.822 8.68 274.995 7.96C276.169 7.21333 277.342 6.84 278.515 6.84C279.422 6.84 280.115 7.26667 280.595 8.12C281.102 8.94667 281.222 10.16 280.955 11.76L280.515 12C280.702 10.7467 280.622 9.74667 280.275 9C279.955 8.22667 279.422 7.84 278.675 7.84C278.035 7.84 277.355 8.17333 276.635 8.84C275.915 9.48 275.209 10.3733 274.515 11.52C273.849 12.64 273.222 13.9067 272.635 15.32C272.075 16.7333 271.635 18.2 271.315 19.72C270.995 21.2133 270.835 22.68 270.835 24.12C270.835 25.1867 270.942 25.9333 271.155 26.36C271.395 26.7867 271.715 27 272.115 27ZM281.675 7.4C282.475 7.37333 283.249 7.32 283.995 7.24C284.742 7.16 285.435 7.02667 286.075 6.84L280.995 24.56C280.915 24.8533 280.835 25.1867 280.755 25.56C280.702 25.9067 280.715 26.2133 280.795 26.48C280.902 26.7467 281.155 26.88 281.555 26.88C282.035 26.88 282.515 26.6267 282.995 26.12C283.475 25.5867 283.955 24.5867 284.435 23.12L284.995 21.48H285.755L284.755 24.4C284.382 25.4933 283.929 26.3333 283.395 26.92C282.862 27.5067 282.289 27.92 281.675 28.16C281.089 28.4267 280.515 28.56 279.955 28.56C278.782 28.56 277.955 28.1867 277.475 27.44C277.129 26.8533 277.009 26.1467 277.115 25.32C277.249 24.4667 277.435 23.5867 277.675 22.68L281.675 7.4ZM290.242 27.4C290.455 27.5067 290.682 27.6 290.922 27.68C291.188 27.7333 291.548 27.76 292.002 27.76C293.095 27.76 294.002 27.4267 294.722 26.76C295.442 26.0667 295.802 25.0933 295.802 23.84C295.802 23.0133 295.628 22.1733 295.282 21.32C294.962 20.4667 294.428 19.5067 293.682 18.44C293.068 17.5333 292.482 16.64 291.922 15.76C291.388 14.8533 291.122 13.8 291.122 12.6C291.122 11.4533 291.402 10.4533 291.962 9.6C292.522 8.74667 293.295 8.08 294.282 7.6C295.295 7.09333 296.428 6.84 297.682 6.84C298.508 6.84 299.322 6.94667 300.122 7.16C300.948 7.34667 301.628 7.70667 302.162 8.24C302.695 8.77333 302.962 9.54667 302.962 10.56C302.962 10.8533 302.882 11.1867 302.722 11.56C302.588 11.9333 302.375 12.2533 302.082 12.52C301.788 12.7867 301.402 12.92 300.922 12.92C300.415 12.92 299.988 12.7333 299.642 12.36C299.295 11.9867 299.122 11.5067 299.122 10.92C299.122 10.36 299.228 9.84 299.442 9.36C299.655 8.85333 299.935 8.4 300.282 8C299.828 7.73333 299.228 7.6 298.482 7.6C297.495 7.6 296.682 7.92 296.042 8.56C295.428 9.2 295.122 10.0933 295.122 11.24C295.122 11.8533 295.215 12.4133 295.402 12.92C295.588 13.4 295.868 13.9067 296.242 14.44C296.615 14.9733 297.042 15.6133 297.522 16.36C298.215 17.4533 298.775 18.4667 299.202 19.4C299.655 20.3333 299.882 21.3067 299.882 22.32C299.882 23.52 299.562 24.6 298.922 25.56C298.308 26.4933 297.468 27.2267 296.402 27.76C295.335 28.2933 294.122 28.56 292.762 28.56C291.802 28.56 290.868 28.4133 289.962 28.12C289.082 27.8533 288.362 27.4267 287.802 26.84C287.242 26.2267 286.962 25.4 286.962 24.36C286.962 23.88 287.108 23.4 287.402 22.92C287.668 22.44 288.122 22.2 288.762 22.2C289.428 22.2 289.908 22.48 290.202 23.04C290.522 23.5733 290.682 24.2 290.682 24.92C290.682 25.4533 290.628 25.92 290.522 26.32C290.415 26.72 290.322 27.08 290.242 27.4Z" fill="#C00625"/>
</svg>
