<svg width="32" height="32" viewBox="0 0 32 32" fill="none" xmlns="http://www.w3.org/2000/svg">
<path d="M26.0263 23.8111C26.5332 23.8114 27.0205 24.0108 27.3873 24.368C27.7542 24.7252 27.9724 25.2128 27.9967 25.7298C28.0211 26.2468 27.8497 26.7535 27.5182 27.145C27.1866 27.5365 26.7203 27.7828 26.2158 27.8327L26.0263 27.8421H4.97368C4.46682 27.8419 3.97948 27.6425 3.61265 27.2853C3.24582 26.9281 3.02762 26.4405 3.00326 25.9235C2.9789 25.4065 3.15025 24.8997 3.48181 24.5082C3.81337 24.1167 4.27971 23.8705 4.78421 23.8206L4.97368 23.8111H26.0263ZM26.0263 14.4056C26.5498 14.4056 27.0518 14.6179 27.4219 14.9959C27.7921 15.3739 28 15.8865 28 16.4211C28 16.9556 27.7921 17.4682 27.4219 17.8462C27.0518 18.2242 26.5498 18.4365 26.0263 18.4365H4.97368C4.45023 18.4365 3.94822 18.2242 3.57808 17.8462C3.20794 17.4682 3 16.9556 3 16.4211C3 15.8865 3.20794 15.3739 3.57808 14.9959C3.94822 14.6179 4.45023 14.4056 4.97368 14.4056H26.0263ZM26.0263 5C26.5498 5 27.0518 5.21234 27.4219 5.59032C27.7921 5.9683 28 6.48094 28 7.01548C28 7.55002 27.7921 8.06266 27.4219 8.44064C27.0518 8.81862 26.5498 9.03096 26.0263 9.03096H4.97368C4.45023 9.03096 3.94822 8.81862 3.57808 8.44064C3.20794 8.06266 3 7.55002 3 7.01548C3 6.48094 3.20794 5.9683 3.57808 5.59032C3.94822 5.21234 4.45023 5 4.97368 5H26.0263Z" fill="#262626"/>
</svg>
