<svg width="40" height="40" viewBox="0 0 40 40" fill="none" xmlns="http://www.w3.org/2000/svg">
<path d="M33.3333 29.1667C33.9754 29.167 34.5927 29.4143 35.0573 29.8574C35.522 30.3004 35.7984 30.9053 35.8292 31.5465C35.8601 32.1878 35.643 32.8164 35.223 33.302C34.8031 33.7876 34.2124 34.0931 33.5733 34.155L33.3333 34.1667H6.66667C6.02464 34.1664 5.40734 33.9191 4.94269 33.476C4.47804 33.0329 4.20165 32.4281 4.17079 31.7868C4.13994 31.1455 4.35699 30.517 4.77696 30.0313C5.19693 29.5457 5.78764 29.2403 6.42667 29.1783L6.66667 29.1667H33.3333ZM33.3333 17.5C33.9964 17.5 34.6323 17.7634 35.1011 18.2322C35.5699 18.7011 35.8333 19.337 35.8333 20C35.8333 20.6631 35.5699 21.2989 35.1011 21.7678C34.6323 22.2366 33.9964 22.5 33.3333 22.5H6.66667C6.00363 22.5 5.36774 22.2366 4.8989 21.7678C4.43006 21.2989 4.16667 20.6631 4.16667 20C4.16667 19.337 4.43006 18.7011 4.8989 18.2322C5.36774 17.7634 6.00363 17.5 6.66667 17.5H33.3333ZM33.3333 5.83334C33.9964 5.83334 34.6323 6.09674 35.1011 6.56558C35.5699 7.03442 35.8333 7.6703 35.8333 8.33334C35.8333 8.99638 35.5699 9.63227 35.1011 10.1011C34.6323 10.57 33.9964 10.8333 33.3333 10.8333H6.66667C6.00363 10.8333 5.36774 10.57 4.8989 10.1011C4.43006 9.63227 4.16667 8.99638 4.16667 8.33334C4.16667 7.6703 4.43006 7.03442 4.8989 6.56558C5.36774 6.09674 6.00363 5.83334 6.66667 5.83334H33.3333Z" fill="#262626"/>
</svg>
